<svg width="16" height="17" viewBox="0 0 16 17" fill="currentColor" xmlns="http://www.w3.org/2000/svg">
<path d="M7.31496 1.93823C7.8601 1.93823 8.38292 2.15479 8.76839 2.54027C9.15387 2.92574 9.37043 3.44856 9.37043 3.99371V4.79534C9.58488 4.71997 9.81578 4.67886 10.0556 4.67886H12.7962C13.3414 4.67886 13.8642 4.89542 14.2497 5.2809C14.6351 5.66637 14.8517 6.18919 14.8517 6.73434V13.5859C15.0334 13.5859 15.2077 13.6581 15.3362 13.7866C15.4647 13.9151 15.5368 14.0894 15.5368 14.2711C15.5368 14.4528 15.4647 14.6271 15.3362 14.7556C15.2077 14.884 15.0334 14.9562 14.8517 14.9562H1.14854C0.966821 14.9562 0.792549 14.884 0.664057 14.7556C0.535565 14.6271 0.463379 14.4528 0.463379 14.2711C0.463379 14.0894 0.535565 13.9151 0.664057 13.7866C0.792549 13.6581 0.966821 13.5859 1.14854 13.5859V3.99371C1.14854 3.44856 1.36509 2.92574 1.75057 2.54027C2.13605 2.15479 2.65886 1.93823 3.20401 1.93823H7.31496ZM7.31496 3.30855H3.20401C3.02229 3.30855 2.84802 3.38073 2.71953 3.50923C2.59104 3.63772 2.51885 3.81199 2.51885 3.99371V13.5852H8.00011V3.99371C8.00024 3.8393 7.9482 3.68937 7.85244 3.56824C7.75668 3.44711 7.62281 3.36188 7.47254 3.32636L7.39512 3.31266L7.31496 3.30855ZM12.7962 6.04918H10.0556C9.87387 6.04918 9.6996 6.12136 9.57111 6.24986C9.44261 6.37835 9.37043 6.55262 9.37043 6.73434V13.5852H13.4814V6.73434C13.4815 6.57993 13.4295 6.43 13.3337 6.30887C13.2379 6.18774 13.1041 6.10251 12.9538 6.06699L12.8764 6.05329L12.7962 6.04918ZM12.1111 10.1601C12.2928 10.1601 12.467 10.2323 12.5955 10.3608C12.724 10.4893 12.7962 10.6636 12.7962 10.8453C12.7962 11.027 12.724 11.2013 12.5955 11.3298C12.467 11.4583 12.2928 11.5304 12.1111 11.5304H10.7407C10.559 11.5304 10.3848 11.4583 10.2563 11.3298C10.1278 11.2013 10.0556 11.027 10.0556 10.8453C10.0556 10.6636 10.1278 10.4893 10.2563 10.3608C10.3848 10.2323 10.559 10.1601 10.7407 10.1601H12.1111ZM6.6298 10.1601C6.81151 10.1601 6.98579 10.2323 7.11428 10.3608C7.24277 10.4893 7.31496 10.6636 7.31496 10.8453C7.31496 11.027 7.24277 11.2013 7.11428 11.3298C6.98579 11.4583 6.81151 11.5304 6.6298 11.5304H3.88917C3.70745 11.5304 3.53318 11.4583 3.40469 11.3298C3.2762 11.2013 3.20401 11.027 3.20401 10.8453C3.20401 10.6636 3.2762 10.4893 3.40469 10.3608C3.53318 10.2323 3.70745 10.1601 3.88917 10.1601H6.6298ZM12.1111 7.41949C12.2928 7.41949 12.467 7.49168 12.5955 7.62017C12.724 7.74866 12.7962 7.92294 12.7962 8.10465C12.7962 8.28637 12.724 8.46064 12.5955 8.58913C12.467 8.71762 12.2928 8.78981 12.1111 8.78981H10.7407C10.559 8.78981 10.3848 8.71762 10.2563 8.58913C10.1278 8.46064 10.0556 8.28637 10.0556 8.10465C10.0556 7.92294 10.1278 7.74866 10.2563 7.62017C10.3848 7.49168 10.559 7.41949 10.7407 7.41949H12.1111ZM6.6298 7.41949C6.81151 7.41949 6.98579 7.49168 7.11428 7.62017C7.24277 7.74866 7.31496 7.92294 7.31496 8.10465C7.31496 8.28637 7.24277 8.46064 7.11428 8.58913C6.98579 8.71762 6.81151 8.78981 6.6298 8.78981H3.88917C3.70745 8.78981 3.53318 8.71762 3.40469 8.58913C3.2762 8.46064 3.20401 8.28637 3.20401 8.10465C3.20401 7.92294 3.2762 7.74866 3.40469 7.62017C3.53318 7.49168 3.70745 7.41949 3.88917 7.41949H6.6298ZM6.6298 4.67886C6.81151 4.67886 6.98579 4.75105 7.11428 4.87954C7.24277 5.00803 7.31496 5.18231 7.31496 5.36402C7.31496 5.54574 7.24277 5.72001 7.11428 5.8485C6.98579 5.97699 6.81151 6.04918 6.6298 6.04918H3.88917C3.70745 6.04918 3.53318 5.97699 3.40469 5.8485C3.2762 5.72001 3.20401 5.54574 3.20401 5.36402C3.20401 5.18231 3.2762 5.00803 3.40469 4.87954C3.53318 4.75105 3.70745 4.67886 3.88917 4.67886H6.6298Z" fill="currentColor"/>
</svg>
