<svg width="16" height="17" viewBox="0 0 16 17" fill="currentColor" xmlns="http://www.w3.org/2000/svg">
<path d="M7.99984 2.34248C4.62794 2.34248 1.89448 5.07594 1.89448 8.44784C1.89448 11.8197 4.62794 14.5532 7.99984 14.5532C11.3717 14.5532 14.1052 11.8197 14.1052 8.44784C14.1052 5.07594 11.3717 2.34248 7.99984 2.34248ZM0.612793 8.44784C0.612793 4.36808 3.92009 1.06079 7.99984 1.06079C12.0796 1.06079 15.3869 4.36808 15.3869 8.44784C15.3869 12.5276 12.0796 15.8349 7.99984 15.8349C3.92009 15.8349 0.612793 12.5276 0.612793 8.44784Z" fill="currentColor"/>
<path d="M9.82213 5.34392C10.05 5.57121 10.0517 5.93777 9.82241 6.16648L9.10524 6.88195H10.281C10.5943 6.88195 10.8481 7.13487 10.8481 7.45159C10.8481 7.60218 10.7884 7.74664 10.6822 7.85338C10.576 7.96013 10.4318 8.02048 10.2813 8.02123H8.56949V8.87569H10.2813C10.5943 8.87569 10.8481 9.12861 10.8481 9.44533C10.8481 9.59592 10.7884 9.74038 10.6822 9.84712C10.576 9.95387 10.4318 10.0142 10.2813 10.015H8.56949V11.156C8.56956 11.2307 8.55487 11.3047 8.52625 11.3738C8.49763 11.4428 8.45564 11.5056 8.40271 11.5583C8.34977 11.6111 8.28694 11.6529 8.2178 11.6813C8.14866 11.7097 8.07459 11.7242 7.99985 11.7239C7.68512 11.7239 7.43021 11.469 7.43021 11.156V10.015H5.71844C5.64376 10.015 5.56983 10.0002 5.50087 9.97156C5.43192 9.94289 5.36931 9.90089 5.31664 9.84796C5.26397 9.79502 5.22228 9.7322 5.19397 9.66311C5.16565 9.59401 5.15127 9.52 5.15164 9.44533C5.15164 9.29475 5.21127 9.15029 5.31748 9.04354C5.42369 8.93679 5.56785 8.87644 5.71844 8.87569H7.43021V8.02123H5.71844C5.64376 8.02123 5.56983 8.00648 5.50087 7.97782C5.43192 7.94915 5.36931 7.90715 5.31664 7.85421C5.26397 7.80128 5.22228 7.73846 5.19397 7.66937C5.16565 7.60027 5.15127 7.52626 5.15164 7.45159C5.15164 7.301 5.21127 7.15654 5.31748 7.0498C5.42369 6.94305 5.56785 6.8827 5.71844 6.88195H6.89446L6.177 6.16648C6.12274 6.11263 6.07968 6.04857 6.0503 5.978C6.02092 5.90742 6.00581 5.83173 6.00584 5.75528C6.00587 5.67884 6.02103 5.60316 6.05046 5.5326C6.07988 5.46205 6.12299 5.39802 6.17728 5.3442C6.23132 5.28996 6.29553 5.24692 6.36623 5.21753C6.43693 5.18814 6.51273 5.17298 6.5893 5.17293C6.66586 5.17287 6.74169 5.18793 6.81243 5.21722C6.88317 5.24651 6.94744 5.28947 7.00155 5.34363L7.82668 6.16705C7.94488 6.28497 8.05425 6.28497 8.17245 6.16705L8.99757 5.34392C9.05165 5.28972 9.11589 5.24671 9.18661 5.21737C9.25733 5.18803 9.33314 5.17293 9.40971 5.17293C9.48627 5.17293 9.56209 5.18803 9.63281 5.21737C9.70353 5.24671 9.76805 5.28972 9.82213 5.34392Z" fill="currentColor"/>
</svg>
