<svg width="16" height="16" viewBox="0 0 16 16" fill="inherit" xmlns="http://www.w3.org/2000/svg">
    <path d="M5.35804 9.71115C5.35779 9.73055 5.35767 9.74998 5.35767 9.76944C5.35767 10.234 5.42959 10.6738 5.56292 11.0815H3.88917C3.70745 11.0815 3.53318 11.0093 3.40469 10.8808C3.2762 10.7523 3.20401 10.578 3.20401 10.3963C3.20401 10.2146 3.2762 10.0403 3.40469 9.91183C3.53318 9.78333 3.70745 9.71115 3.88917 9.71115H5.35804Z" fill="inherit"/>
    <path d="M6.36104 6.97052C6.02906 7.37352 5.7673 7.83653 5.59449 8.34083H3.88917C3.70745 8.34083 3.53318 8.26865 3.40469 8.14016C3.2762 8.01166 3.20401 7.83739 3.20401 7.65568C3.20401 7.47396 3.2762 7.29969 3.40469 7.1712C3.53318 7.04271 3.70745 6.97052 3.88917 6.97052H6.36104Z" fill="inherit"/>
    <path d="M7.11428 4.43057C6.98579 4.30207 6.81151 4.22989 6.6298 4.22989H3.88917C3.70745 4.22989 3.53318 4.30207 3.40469 4.43057C3.2762 4.55906 3.20401 4.73333 3.20401 4.91505C3.20401 5.09676 3.2762 5.27103 3.40469 5.39953C3.53318 5.52802 3.70745 5.6002 3.88917 5.6002H6.6298C6.81151 5.6002 6.98579 5.52802 7.11428 5.39953C7.24277 5.27103 7.31496 5.09676 7.31496 4.91505C7.31496 4.73333 7.24277 4.55906 7.11428 4.43057Z" fill="inherit"/>
    <path d="M8.76839 2.09129C8.38292 1.70582 7.8601 1.48926 7.31496 1.48926H3.20401C2.65886 1.48926 2.13605 1.70582 1.75057 2.09129C1.36509 2.47677 1.14854 2.99959 1.14854 3.54473V13.1369C0.966821 13.1369 0.792549 13.2091 0.664057 13.3376C0.535565 13.4661 0.463379 13.6404 0.463379 13.8221C0.463379 14.0038 0.535565 14.1781 0.664057 14.3066C0.792549 14.4351 0.966821 14.5073 1.14854 14.5073H14.8517C15.0334 14.5073 15.2077 14.4351 15.3362 14.3066C15.4647 14.1781 15.5368 14.0038 15.5368 13.8221C15.5368 13.6404 15.4647 13.4661 15.3362 13.3376C15.2077 13.2091 15.0334 13.1369 14.8517 13.1369V6.68402C14.8517 6.13888 14.6351 5.75026 14.2497 5.36479C13.8642 4.97931 13.3414 4.76275 12.7962 4.76275H10.0556C9.81578 4.76275 9.58488 4.80386 9.37043 4.87923V4.0776C9.37043 3.53245 9.15387 2.47677 8.76839 2.09129ZM3.20401 2.85957H7.31496L7.39512 2.86368L7.47254 2.87739C7.62281 2.9129 7.75668 2.99813 7.85244 3.11926C7.9482 3.2404 8.00024 3.39032 8.00011 3.54473V5.73126C8.53982 5.49537 9.13593 5.3645 9.7626 5.3645C10.6853 5.3645 11.5417 5.64818 12.2494 6.13307H12.7962L12.8764 6.13718L12.9538 6.15088C13.1041 6.1864 13.2379 6.27163 13.3337 6.39276C13.4295 6.51389 13.4815 6.66382 13.4814 6.81823V7.40743C13.9158 8.09004 14.1675 8.90034 14.1675 9.76944C14.1675 10.6386 13.9158 11.4212 13.4814 12.0682V13.1363H12.4331C11.6924 13.6583 10.7669 13.9572 9.76294 13.9572C8.75898 13.9572 7.83341 13.6583 7.09251 13.1363H2.51885V3.54473C2.51885 3.36302 2.59104 3.18874 2.71953 3.06025C2.84802 2.93176 3.02229 2.85957 3.20401 2.85957Z" fill="inherit"/>
    <path d="M9.76262 5.96447C7.66121 5.96447 5.95769 7.668 5.95769 9.7694C5.95769 11.8316 7.62093 13.3572 9.76296 13.3572C11.9049 13.3572 13.5676 11.8317 13.5676 9.7694C13.5676 7.668 11.864 5.96447 9.76262 5.96447ZM4.75769 9.7694C4.75769 7.00525 6.99847 4.76447 9.76262 4.76447C12.5268 4.76447 14.7676 7.00525 14.7676 9.7694C14.7676 12.5727 12.4866 14.5572 9.76296 14.5572C7.03944 14.5572 4.75769 12.5728 4.75769 9.7694Z" fill="inherit"/>
    <path d="M9.00934 7.14591C8.79623 6.9292 8.44779 6.92628 8.23108 7.13938C8.01436 7.35249 8.01144 7.70093 8.22455 7.91764L9.00726 8.7136H8.03813C7.73419 8.7136 7.48779 8.95999 7.48779 9.26393C7.48779 9.56787 7.73419 9.81426 8.03813 9.81426H9.20812V10.4689H8.03813C7.73419 10.4689 7.48779 10.7152 7.48779 11.0192C7.48779 11.3231 7.73419 11.5695 8.03813 11.5695H9.20812V11.8968C9.20812 12.2008 9.45451 12.4471 9.75845 12.4471C10.0624 12.4471 10.3088 12.2008 10.3088 11.8968V11.5695H11.4783C11.7822 11.5695 12.0286 11.3231 12.0286 11.0192C12.0286 10.7152 11.7822 10.4689 11.4783 10.4689H10.3088V9.81426H11.4783C11.7822 9.81426 12.0286 9.56787 12.0286 9.26393C12.0286 8.95999 11.7822 8.7136 11.4783 8.7136H10.5089L11.2919 7.91772C11.505 7.70105 11.5022 7.35261 11.2855 7.13946C11.0688 6.92631 10.7204 6.92916 10.5072 7.14584L9.7581 7.90735L9.00934 7.14591Z" fill="inherit"/>
</svg>
